# xmcd
# Track frame offsets:
# 150
# 12354
# 24307
# 37430
# 49424
# 62282
# 75446
# 90185
# 103378
# 116667
# 127979
# 141241
# 153611
# 164798
# 177293
# 189761
# 203565
# 215990
# 229238
# 239714
#
# Disc length: 3368 seconds
# Revision: 0
# Processed by: cddbd v1.5.2PL0 Copyright (c) Steve Scherf et al.
# Submitted via: VisiTrax 2.10.0.248 - For more info visit www.synapsa.com
#
DISCID=1d0d2614
DTITLE=Ruth Brown - Ruth Brown Jukebox Hits 1949-1955
DYEAR=1900
DGENRE=Blues
TTITLE0=So Long
TTITLE1=Sentimental Journey
TTITLE2=Teardrops From My Eyes
TTITLE3=I'll Wait For You
TTITLE4=I Know
TTITLE5=Shine On
TTITLE6=5 To 15 Hours
TTITLE7=Daddy Daddy
TTITLE8=Mama He Treats Your Daughter Mean
TTITLE9=Wild Wild Young Men
TTITLE10=Oh What A Dream
TTITLE11=Mambo Baby
TTITLE12=Somebody Touched Me
TTITLE13=Bye Bye Young Men
TTITLE14=As Long As I'm Moving
TTITLE15=I Can See Everybody's Baby
TTITLE16=It's Love Baby (24 Hours a Day)
TTITLE17=Love Has Joined Us Together
TTITLE18=I Gotta Have You
TTITLE19=I Wait to Do More
EXTD=
EXTT0=
EXTT1=
EXTT2=
EXTT3=
EXTT4=
EXTT5=
EXTT6=
EXTT7=
EXTT8=
EXTT9=
EXTT10=
EXTT11=
EXTT12=
EXTT13=
EXTT14=
EXTT15=
EXTT16=
EXTT17=
EXTT18=
EXTT19=
PLAYORDER=
